<svg id="Icon" xmlns="http://www.w3.org/2000/svg" width="24" height="24" viewBox="0 0 24 24">
  <g id="Shapes">
    <path id="Path" d="M0,6.067A6.035,6.035,0,0,1,4.932,11H11A12.063,12.063,0,0,0,0,0Z"
      transform="translate(13 0.001)" fill="#94a3b8"/>
    <path id="Path-2" data-name="Path"
      d="M14.007,0A5.972,5.972,0,0,1,8.143,5,5.888,5.888,0,0,1,4.449,3.7L0,7.731A11.8,11.8,0,0,0,8.143,11,11.954,11.954,0,0,0,20,0Z"
      transform="translate(4 13)" fill="#334155"  />
    <path id="Path-3" data-name="Path"
      d="M6.939,15.007A5.861,5.861,0,0,1,6,11.829a5.963,5.963,0,0,1,5-5.85V0A11.939,11.939,0,0,0,0,11.829,11.724,11.724,0,0,0,2.456,19Z"
       />
  </g>
</svg>