<svg id="Icon" xmlns="http://www.w3.org/2000/svg" width="24" height="24" viewBox="0 0 24 24">
  <g id="Shapes">
    <path id="Combined_Shape" data-name="Combined Shape"
      d="M3,19a1,1,0,0,1-1-1V13H0V7A2,2,0,0,1,2,5H6A2,2,0,0,1,8,7v6H6v5a1,1,0,0,1-1,1ZM2,2A2,2,0,1,1,4,4,2,2,0,0,1,2,2Z"
      transform="translate(16 3)" />
    <path id="Combined_Shape-2" data-name="Combined Shape"
      d="M3,19a1,1,0,0,1-1-1V13H0V7A2,2,0,0,1,2,5H6A2,2,0,0,1,8,7v6H6v5a1,1,0,0,1-1,1ZM2,2A2,2,0,1,1,4,4,2,2,0,0,1,2,2Z"
      transform="translate(0 3)" />
    <path id="Combined_Shape-3" data-name="Combined Shape"
      d="M4,24a1,1,0,0,1-1-1V17H0V11A3,3,0,0,1,3,8H9a3,3,0,0,1,3,3v6H9v6a1,1,0,0,1-1,1ZM3,3A3,3,0,1,1,6,6,3,3,0,0,1,3,3Z"
      transform="translate(6)" fill="#94a3b8" />
  </g>
</svg>