<svg viewBox="0 0 24 24">
  <path fill="#94a3b8"
    d="m16.87989,16.9444l2.98855,-1.78934l0,-3.18585l-2.80528,1.67963c-0.10108,0.07005 -0.23617,0.07886 -0.34859,0.01126l-2.82322,-1.6904l0,3.18536l2.98854,1.78934zm3.48027,-5.86521c0.02031,0.01176 0.03968,0.02597 0.05763,0.04213l0.00424,0.00392l0.00095,0.00098l0.00095,0.00097l0.00425,0.00441l0.00094,0.00098l0.0052,0.00539l0.00047,0.00048c0.02693,0.02891 0.04865,0.06172 0.06424,0.09749l0.00236,0.00587l0.00048,0.00147c0.017,0.04115 0.0255,0.08474 0.02645,0.12785l0,0.00049l0,0.00539l0,0l0.00141,0l0,3.77806l3.12601,1.87163c0.11383,0.05388 0.19319,0.1734 0.19319,0.31202l0,3.97448l-0.00142,0c0,0.11804 -0.05952,0.23315 -0.16532,0.29585l-3.3003,1.97597c-0.10109,0.07005 -0.23617,0.07886 -0.3486,0.01127l-3.15434,-1.88878l-3.15435,1.88878c-0.1058,0.06269 -0.2305,0.05829 -0.32922,-0.0005l-0.00047,0.0005l-3.3192,-1.98724c-0.10534,-0.06319 -0.16438,-0.1783 -0.16438,-0.29585l-0.00094,0l0,-3.97448c0,-0.13862 0.07935,-0.25813 0.19318,-0.31202l3.12601,-1.87163l0,-3.77806c0,-0.13863 0.07935,-0.25814 0.19319,-0.31203l3.29227,-1.97108c0.10676,-0.06367 0.23382,-0.05829 0.33254,0.00295l3.31258,1.98233l0,0zm2.82748,6.85124l-2.82464,1.6909c-0.10581,0.0627 -0.23052,0.05828 -0.32924,-0.00049l-0.00047,0.00049l-2.82323,-1.69041l0,3.18438l2.98903,1.78984l2.98855,-1.78837l0,-3.18634l0,0zm-17.31158,-17.79843c0.90643,0 1.7269,0.3811 2.32112,0.99682c0.59421,0.6162 0.96122,1.46703 0.96122,2.40701c0,0.93998 -0.36748,1.79082 -0.96122,2.40703c-0.59422,0.61621 -1.41469,0.9968 -2.32112,0.9968c-0.90644,0 -1.72691,-0.38109 -2.32112,-0.9968c-0.59422,-0.61621 -0.96124,-1.46705 -0.96124,-2.40703c0,-0.93998 0.36749,-1.79081 0.96124,-2.40701c0.59421,-0.61572 1.41468,-0.99682 2.32112,-0.99682l0,0zm6.99028,7.35872c0.77466,0 1.27582,0.41046 1.49924,0.93606c0.08691,0.20426 0.13037,0.42468 0.13037,0.64412s-0.04346,0.43987 -0.13037,0.64413c-0.22342,0.52559 -0.72458,0.93606 -1.49924,0.93606l-2.5162,0c-0.29191,0 -0.5569,0.12344 -0.74867,0.3228c-0.19224,0.19937 -0.31128,0.47415 -0.31128,0.77638l0,10.5857c0,0.72054 -0.39063,1.18342 -0.89038,1.38768c-0.18799,0.0769 -0.39015,0.11511 -0.5909,0.11511c-0.20075,0 -0.40292,-0.03821 -0.59091,-0.11511c-0.49975,-0.20427 -0.89038,-0.66714 -0.89038,-1.38768c0,-1.90985 -0.00095,-2.45748 -0.00141,-3.0051c-0.00095,-0.74259 -0.00237,-1.48565 -0.00284,-2.22824c0,-0.21356 -0.11053,-0.34876 -0.25177,-0.40656c-0.06329,-0.02596 -0.13083,-0.03917 -0.19697,-0.03917c-0.06612,0 -0.13366,0.01321 -0.19697,0.03917c-0.14122,0.05781 -0.25128,0.193 -0.25128,0.40656c-0.00048,0.74553 -0.00095,1.49104 -0.00141,2.23656c0,0.24786 -0.00048,0.45946 -0.00048,2.99678c0,0.72054 -0.39064,1.18342 -0.89038,1.38768c-0.18799,0.0769 -0.39015,0.11511 -0.5909,0.11511s-0.40292,-0.03821 -0.59091,-0.11511c-0.49975,-0.20427 -0.89038,-0.66714 -0.89038,-1.38768l0,-4.97373c-0.06566,0.04065 -0.13462,0.07592 -0.20547,0.10531c-0.18469,0.0769 -0.3826,0.11561 -0.57863,0.11561c-0.19603,0 -0.39442,-0.03871 -0.57863,-0.11561c-0.48746,-0.20279 -0.86771,-0.66175 -0.86771,-1.37446l0,-4.64309c0,-1.19959 0.44591,-2.16651 1.16812,-2.84786c0.76237,-0.71957 1.82847,-1.11094 2.9947,-1.11094l8.47204,0l0,-0.00048zm3.6829,10.43971l-2.80527,1.67964c-0.10109,0.07004 -0.23617,0.07885 -0.34859,0.01126l-2.82323,-1.69041l0,3.18438l2.98902,1.78984l2.98807,-1.78886l0,-3.18585z"></path>
  <path
    d="m13.87716,11.85942l0.00758,3.42141l3.02409,1.74457l2.96829,-1.82941l-0.00103,-3.23953l-2.99039,1.706l-3.00855,-1.80305z"></path>
  <path
    d="m10.55164,17.81182l0.00758,3.42141l3.0241,1.74457l2.96829,-1.82941l-0.00103,-3.23953l-2.99039,1.70601l-3.00855,-1.80305z"></path>
  <path
    d="m17.18871,17.79785l0.0076,3.42141l3.03114,1.74457l2.9752,-1.82941l-0.00103,-3.23953l-2.99735,1.70601l-3.01556,-1.80305z"></path>
</svg>