<svg xmlns="http://www.w3.org/2000/svg" version="1.1" xmlns:xlink="http://www.w3.org/1999/xlink" xmlns:svgjs="http://svgjs.dev/svgjs" width="1000" height="174" viewBox="0 0 1000 174"><g transform="matrix(1,0,0,1,-0.6060606060606233,0.4725868233898467)"><svg viewBox="0 0 396 69" data-background-color="#8abcd7" preserveAspectRatio="xMidYMid meet" height="174" width="1000" xmlns="http://www.w3.org/2000/svg" xmlns:xlink="http://www.w3.org/1999/xlink"><defs></defs><g id="tight-bounds" transform="matrix(1,0,0,1,0.2400000000000091,-0.18740511962010942)"><svg viewBox="0 0 395.52 69.37481023924025" height="69.37481023924025" width="395.52"><g><svg viewBox="0 0 497.73730439020625 87.30388107064503" height="69.37481023924025" width="395.52"><g transform="matrix(1,0,0,1,0,12.065876472136907)"><svg viewBox="0 0 395.52 63.17212812637122" height="63.17212812637122" width="395.52"><g><svg viewBox="0 0 395.52 63.17212812637122" height="63.17212812637122" width="395.52"><g><svg viewBox="0 0 395.52 63.17212812637122" height="63.17212812637122" width="395.52"><g transform="matrix(1,0,0,1,0,0)"><svg width="395.52" viewBox="1.9 -35.7 227.89 36.400000000000006" height="63.17212812637122" data-palette-color="#ffffff"><path d="M19.15 0.7L19.15 0.7Q14.15 0.7 10.25-1.55 6.35-3.8 4.13-7.89 1.9-11.98 1.9-17.5L1.9-17.5Q1.9-23.03 4.13-27.11 6.35-31.2 10.25-33.45 14.15-35.7 19.15-35.7L19.15-35.7Q24.15-35.7 28.05-33.45 31.95-31.2 34.18-27.11 36.4-23.03 36.4-17.5L36.4-17.5Q36.4-11.98 34.18-7.89 31.95-3.8 28.05-1.55 24.15 0.7 19.15 0.7ZM19.15-4.58L19.15-4.58Q22.95-4.58 25.5-6.28 28.05-7.98 29.34-10.91 30.63-13.85 30.63-17.5L30.63-17.5Q30.63-21.15 29.34-24.09 28.05-27.03 25.5-28.73 22.95-30.43 19.15-30.43L19.15-30.43Q15.35-30.43 12.8-28.73 10.25-27.03 8.96-24.09 7.68-21.15 7.68-17.5L7.68-17.5Q7.68-13.85 8.96-10.91 10.25-7.98 12.8-6.28 15.35-4.58 19.15-4.58ZM47.82 0L42.22 0 42.22-35 54.2-35Q57.85-35 60.56-33.86 63.27-32.73 64.77-30.38 66.27-28.03 66.27-24.38L66.27-24.38Q66.27-20.68 64.69-18.31 63.1-15.95 60.25-14.58L60.25-14.58 68.12 0 61.75 0 54.8-13.38Q54.72-13.38 54.67-13.38 54.62-13.38 54.55-13.38L54.55-13.38 47.82-13.38 47.82 0ZM47.82-30.28L47.82-18.1 53.45-18.1Q57.17-18.1 58.89-19.78 60.6-21.45 60.6-24.23L60.6-24.23Q60.6-27.1 58.9-28.69 57.2-30.28 53.55-30.28L53.55-30.28 47.82-30.28ZM85.9 0L72.87 0 72.87-35 85.9-35Q90.95-35 94.86-32.93 98.77-30.85 101-26.94 103.22-23.03 103.22-17.5L103.22-17.5Q103.22-11.98 101-8.06 98.77-4.15 94.86-2.08 90.95 0 85.9 0L85.9 0ZM78.32-30.1L78.32-4.9 85.9-4.9Q89.65-4.9 92.17-6.46 94.7-8.03 95.98-10.86 97.27-13.7 97.27-17.5L97.27-17.5Q97.27-21.3 95.98-24.14 94.7-26.98 92.17-28.54 89.65-30.1 85.9-30.1L85.9-30.1 78.32-30.1ZM131.34 0L109.07 0 109.07-35 130.87-35 130.87-29.9 114.59-29.9 114.59-20.83 127.42-20.83 127.42-15.73 114.59-15.73 114.59-5.1 131.34-5.1 131.34 0ZM142.67 0L137.07 0 137.07-35 149.04-35Q152.69-35 155.4-33.86 158.12-32.73 159.62-30.38 161.12-28.03 161.12-24.38L161.12-24.38Q161.12-20.68 159.53-18.31 157.94-15.95 155.09-14.58L155.09-14.58 162.97 0 156.59 0 149.64-13.38Q149.57-13.38 149.52-13.38 149.47-13.38 149.39-13.38L149.39-13.38 142.67-13.38 142.67 0ZM142.67-30.28L142.67-18.1 148.29-18.1Q152.02-18.1 153.73-19.78 155.44-21.45 155.44-24.23L155.44-24.23Q155.44-27.1 153.74-28.69 152.04-30.28 148.39-30.28L148.39-30.28 142.67-30.28ZM173.16 0L167.71 0 167.71-35 173.36-35 189.64-10.33 189.64-35 195.11-35 195.11 0 190.56 0 173.16-26.1 173.16 0ZM221.99-13.83L221.99-8.95 207.14-8.95 207.14-13.83 221.99-13.83ZM224.29 0L213.81-29.68 215.31-29.68 204.84 0 199.34 0 211.84-35 217.29-35 229.79 0 224.29 0Z" opacity="1" transform="matrix(1,0,0,1,0,0)" fill="#ffffff" class="undefined-text-0" data-fill-palette-color="primary" id="text-0"></path></svg></g></svg></g></svg></g></svg></g><g transform="matrix(1,0,0,1,410.4334233195612,0)"><svg viewBox="0 0 87.30388107064503 87.30388107064503" height="87.30388107064503" width="87.30388107064503"><g data-palette-color="#ffffff"><rect width="23.86306082597631" height="87.30388107064503" fill="#ffffff" stroke="transparent" data-fill-palette-color="accent" x="0" fill-opacity="1"></rect><rect width="23.86306082597631" height="87.30388107064503" fill="#ffffff" stroke="transparent" data-fill-palette-color="accent" x="29.10129369021501" fill-opacity="0.75"></rect><rect width="23.86306082597631" height="87.30388107064503" fill="#ffffff" stroke="transparent" data-fill-palette-color="accent" x="58.20258738043002" fill-opacity="0.5"></rect></g></svg></g></svg></g></svg><rect width="395.52" height="69.37481023924025" fill="none" stroke="none" visibility="hidden"></rect></g></svg></g></svg>